<svg width="8" height="10" viewBox="0 0 8 10" fill="none" xmlns="http://www.w3.org/2000/svg">
<path d="M0.428711 1.48877C0.428711 1.00319 0.428711 0.760402 0.529956 0.626566C0.618158 0.509972 0.752972 0.437822 0.89891 0.429108C1.06643 0.419106 1.26844 0.553782 1.67247 0.823134L6.93025 4.32832C7.26409 4.55088 7.43101 4.66216 7.48918 4.80243C7.54004 4.92505 7.54004 5.06287 7.48918 5.1855C7.43101 5.32576 7.26409 5.43704 6.93025 5.6596L1.67247 9.16479C1.26844 9.43414 1.06643 9.56882 0.89891 9.55881C0.752972 9.5501 0.618158 9.47795 0.529956 9.36135C0.428711 9.22752 0.428711 8.98473 0.428711 8.49915V1.48877Z" stroke="#0F0F0F" stroke-opacity="0.8" stroke-width="0.857143" stroke-linecap="round" stroke-linejoin="round"/>
</svg>
