<svg width="13" height="12" viewBox="0 0 13 12" fill="none" xmlns="http://www.w3.org/2000/svg">
<path d="M6.33661 4.14418V6.47751M6.33661 8.81084H6.34244M5.52888 1.16435L0.731027 9.45155C0.464908 9.91121 0.331848 10.141 0.351514 10.3297C0.368667 10.4942 0.454866 10.6437 0.588658 10.741C0.74205 10.8525 1.00762 10.8525 1.53876 10.8525H11.1345C11.6656 10.8525 11.9312 10.8525 12.0846 10.741C12.2183 10.6437 12.3045 10.4942 12.3217 10.3297C12.3414 10.141 12.2083 9.91121 11.9422 9.45154L7.14434 1.16435C6.87917 0.706336 6.74659 0.47733 6.57362 0.400416C6.42273 0.333325 6.25048 0.333325 6.0996 0.400416C5.92662 0.47733 5.79404 0.706337 5.52888 1.16435Z" stroke="black" stroke-width="0.7" stroke-linecap="round" stroke-linejoin="round"/>
</svg>
